<?xml version="1.0" standalone="no"?>
<!DOCTYPE svg PUBLIC "-//W3C//DTD SVG 20010904//EN"
 "http://www.w3.org/TR/2001/REC-SVG-20010904/DTD/svg10.dtd">
<svg version="1.0" xmlns="http://www.w3.org/2000/svg"
 width="1500.000000pt" height="1500.000000pt" viewBox="0 0 1500.000000 1500.000000"
 preserveAspectRatio="xMidYMid meet">
<metadata>
Created by potrace 1.14, written by Peter Selinger 2001-2017
</metadata>
<g transform="translate(0.000000,1500.000000) scale(0.100000,-0.100000)"
fill="#000000" stroke="none">
<path d="M6747 13307 c4 -7 -1 -8 -12 -3 -14 5 -16 4 -7 -7 10 -11 4 -13 -32
-7 -35 5 -43 4 -39 -7 4 -9 0 -11 -11 -7 -9 3 -16 11 -16 17 0 5 -12 -3 -26
-19 -16 -17 -24 -22 -21 -11 6 16 5 16 -19 1 -13 -9 -27 -14 -31 -11 -3 4 -12
-1 -20 -11 -8 -9 -12 -11 -8 -5 4 9 1 11 -9 7 -9 -3 -13 -10 -10 -15 3 -5 0
-9 -5 -9 -6 0 -11 6 -11 13 0 9 -3 8 -9 -2 -5 -7 -14 -10 -20 -7 -6 4 -11 1
-11 -8 0 -8 -5 -18 -12 -22 -7 -5 -8 -3 -3 6 5 8 3 11 -6 8 -8 -3 -13 -11 -11
-18 2 -11 0 -11 -11 -1 -12 9 -16 9 -19 0 -2 -7 -15 -14 -28 -16 -14 -2 -29
-9 -35 -15 -7 -8 -6 -9 4 -3 10 6 12 4 7 -4 -5 -7 -11 -10 -14 -7 -3 3 -15 -2
-26 -11 -20 -17 -20 -17 -7 0 12 15 12 17 -3 11 -9 -3 -16 -12 -16 -20 0 -8
-6 -11 -15 -8 -8 3 -17 0 -20 -8 -3 -8 -15 -15 -27 -15 -12 -1 -29 -11 -38
-23 -13 -17 -18 -18 -29 -8 -12 11 -13 10 -8 -5 4 -10 3 -15 -2 -12 -5 3 -12
1 -16 -5 -3 -5 -15 -10 -27 -10 -13 0 -18 -5 -15 -14 4 -10 1 -13 -9 -9 -7 3
-14 0 -14 -6 0 -6 -5 -11 -11 -11 -5 0 -7 6 -4 13 4 6 -3 1 -15 -13 -12 -14
-19 -18 -15 -10 5 12 4 12 -7 -1 -7 -9 -17 -17 -23 -18 -5 -2 -9 -8 -7 -14 2
-6 -5 -4 -14 4 -12 9 -15 10 -10 1 5 -8 -1 -15 -17 -21 -13 -5 -27 -17 -31
-26 -3 -10 -12 -15 -21 -11 -8 3 -14 2 -12 -2 1 -4 -1 -8 -6 -9 -4 -2 -18 -14
-32 -29 -14 -15 -29 -23 -36 -18 -9 5 -10 2 -6 -11 6 -14 3 -17 -16 -13 -18 3
-24 0 -23 -11 0 -9 -5 -15 -11 -14 -7 2 -12 -3 -10 -10 1 -7 -6 -11 -17 -9
-14 3 -17 -1 -13 -12 5 -11 0 -16 -13 -16 -11 0 -20 -7 -20 -15 0 -8 -5 -15
-11 -15 -5 0 -7 5 -3 12 5 7 3 8 -5 4 -7 -5 -10 -10 -7 -13 10 -10 -15 -44
-26 -37 -7 5 -9 1 -5 -9 5 -12 1 -17 -13 -17 -11 0 -20 -5 -20 -11 0 -5 6 -7
13 -3 8 5 8 3 -2 -9 -7 -9 -17 -14 -22 -11 -5 3 -9 2 -8 -3 3 -19 -2 -34 -10
-29 -5 3 -11 -4 -14 -15 -4 -13 -10 -18 -17 -14 -9 5 -8 0 1 -16 11 -22 11
-23 -5 -10 -14 12 -16 12 -10 -4 6 -14 4 -16 -6 -10 -10 6 -12 4 -7 -8 6 -16
-3 -22 -26 -18 -4 1 -3 -8 3 -19 9 -16 8 -18 -5 -14 -11 4 -13 2 -9 -9 3 -10
-2 -18 -17 -22 -17 -6 -19 -9 -8 -16 11 -7 11 -9 -2 -9 -9 0 -20 -7 -23 -16
-6 -15 -4 -15 11 -3 14 11 13 9 -2 -12 -11 -15 -24 -25 -29 -22 -5 3 -6 0 -4
-8 3 -8 -2 -20 -11 -27 -13 -11 -13 -12 -1 -7 9 4 7 0 -4 -9 -10 -8 -15 -19
-11 -25 4 -7 0 -8 -10 -5 -9 4 -15 3 -14 -2 4 -25 -2 -45 -13 -38 -8 5 -9 2
-5 -10 4 -10 3 -15 -3 -11 -5 3 -14 -5 -21 -17 -12 -22 -11 -22 7 -8 10 8 7 1
-7 -15 -15 -17 -24 -36 -21 -44 3 -8 0 -11 -7 -7 -11 7 -14 -1 -14 -36 0 -11
-5 -14 -15 -10 -11 4 -14 1 -9 -11 3 -9 1 -19 -5 -23 -7 -5 -8 -2 -3 6 5 9 4
11 -4 6 -9 -6 -9 -11 1 -24 10 -12 10 -14 1 -8 -8 4 -13 1 -13 -9 0 -8 -7 -18
-15 -21 -8 -4 -15 -10 -15 -16 0 -5 6 -6 13 -3 6 4 -1 -6 -18 -20 -23 -21 -25
-26 -10 -21 19 6 19 6 1 -8 -11 -9 -16 -22 -12 -31 3 -9 2 -14 -3 -11 -14 9
-21 -20 -8 -33 9 -9 7 -11 -8 -5 -11 4 -17 4 -13 -1 4 -4 3 -14 -3 -22 -9 -10
-8 -17 2 -30 10 -11 10 -14 2 -9 -12 7 -18 -5 -14 -28 1 -5 -6 -6 -16 -2 -16
5 -15 4 1 -9 11 -8 15 -15 9 -15 -6 0 -14 -7 -17 -16 -3 -8 -2 -13 3 -10 4 3
8 -8 7 -23 -1 -23 -4 -27 -14 -19 -9 8 -11 7 -7 -5 4 -8 2 -18 -4 -22 -8 -4
-8 -12 0 -27 6 -11 7 -18 2 -15 -5 4 -9 -13 -9 -36 1 -32 -3 -41 -14 -39 -8 2
-12 0 -8 -3 4 -4 3 -17 -3 -29 -10 -20 -10 -20 5 -2 20 25 20 15 1 -30 -8 -19
-11 -33 -6 -30 4 3 8 -1 8 -9 0 -8 -4 -12 -9 -8 -6 3 -9 -3 -8 -13 4 -35 0
-45 -12 -38 -9 5 -9 3 1 -9 7 -9 18 -14 25 -10 6 3 0 -5 -12 -20 -17 -18 -22
-31 -17 -47 5 -14 3 -20 -3 -16 -6 4 -7 -6 -2 -28 4 -19 4 -40 -1 -47 -4 -7
-3 -22 3 -32 8 -15 7 -18 -3 -12 -9 6 -11 3 -6 -9 4 -10 3 -15 -3 -11 -6 3
-10 3 -11 -2 0 -4 -1 -25 -3 -45 -2 -25 1 -35 8 -31 6 4 3 -4 -6 -19 -9 -14
-14 -29 -10 -33 11 -11 9 -55 -3 -55 -5 0 -4 -4 4 -9 10 -6 10 -13 3 -28 -6
-11 -7 -25 -2 -33 5 -8 5 -21 0 -30 -5 -9 -5 -22 0 -30 5 -9 5 -19 -2 -27 -8
-9 -7 -13 2 -13 8 0 10 -3 7 -6 -3 -4 -2 -16 4 -27 8 -14 8 -18 0 -13 -6 4
-11 2 -11 -3 0 -6 5 -11 10 -11 6 0 10 -5 10 -11 0 -5 -4 -8 -8 -5 -4 3 -7
-10 -5 -27 2 -18 4 -38 5 -44 1 -7 6 -13 11 -13 5 0 3 -8 -4 -17 -8 -9 -9 -14
-3 -10 8 5 13 -6 16 -33 2 -22 -1 -40 -5 -40 -5 0 -4 -6 2 -13 6 -8 8 -17 4
-20 -3 -4 -1 -7 6 -7 7 0 9 -5 5 -12 -5 -7 -9 -21 -9 -30 -1 -14 1 -15 12 -6
11 9 12 7 4 -15 -8 -19 -6 -28 5 -38 11 -9 12 -15 3 -25 -9 -11 -8 -14 1 -14
10 0 10 -4 -1 -16 -10 -13 -10 -17 0 -24 8 -5 10 -13 5 -21 -6 -10 -3 -10 11
1 19 15 19 14 1 -14 -10 -16 -12 -25 -5 -21 9 6 10 3 5 -10 -6 -16 -4 -16 10
-4 16 13 16 12 5 -9 -6 -12 -9 -26 -6 -31 3 -5 6 -28 7 -51 1 -25 7 -44 17
-50 9 -5 11 -10 4 -10 -6 0 -9 -9 -6 -20 3 -11 10 -17 16 -13 6 4 7 1 1 -8
-15 -24 -14 -41 3 -35 13 5 14 4 3 -9 -10 -12 -10 -18 0 -30 6 -8 9 -19 5 -25
-3 -5 0 -10 7 -10 8 0 9 -3 3 -8 -16 -11 -16 -32 -1 -38 8 -3 12 -12 9 -20 -3
-8 2 -23 12 -33 15 -18 15 -20 -2 -30 -17 -10 -17 -10 2 -11 11 -1 15 -4 8 -6
-7 -3 -9 -12 -6 -20 3 -7 9 -11 14 -8 5 3 9 0 9 -5 0 -6 -4 -11 -10 -11 -5 0
-10 -5 -10 -11 0 -5 5 -7 10 -4 6 4 10 -5 10 -20 0 -18 4 -24 13 -19 8 5 8 2
-2 -9 -9 -11 -10 -17 -2 -17 6 0 11 -5 11 -11 0 -5 -4 -8 -10 -4 -5 3 -3 -7 5
-21 8 -15 12 -31 9 -36 -3 -4 -1 -8 5 -8 5 0 8 -8 7 -17 -2 -10 2 -21 8 -25 7
-5 4 -8 -7 -8 -15 0 -14 -4 8 -25 28 -29 34 -44 8 -24 -17 13 -17 13 0 -13 20
-32 22 -42 5 -32 -7 5 -8 3 -2 -7 5 -8 9 -17 9 -21 0 -3 4 -10 9 -15 5 -5 6
-2 1 6 -5 9 -4 12 3 7 6 -4 9 -13 6 -21 -3 -7 0 -23 6 -35 10 -18 10 -21 -2
-14 -11 6 -11 5 1 -9 7 -9 11 -26 8 -38 -4 -16 0 -23 16 -27 20 -5 20 -6 1
-13 -19 -7 -19 -8 1 -8 17 -1 17 -3 5 -11 -9 -6 -11 -10 -3 -10 7 0 10 -7 6
-15 -3 -9 3 -23 13 -31 18 -15 18 -15 -1 -9 -17 5 -17 3 5 -21 14 -15 18 -23
10 -19 -13 8 -13 7 -1 -8 9 -12 10 -17 2 -17 -7 0 -9 -5 -6 -10 4 -6 10 -8 15
-5 5 3 12 0 16 -6 4 -8 3 -9 -4 -5 -16 10 -15 -7 1 -23 9 -11 9 -12 0 -7 -16
9 -5 -25 11 -36 8 -5 7 -8 -1 -8 -15 0 -10 -33 6 -38 9 -3 9 -8 -1 -20 -10
-12 -10 -14 0 -8 6 4 13 2 13 -3 1 -6 2 -17 3 -23 1 -7 -2 -19 -7 -26 -7 -9
-6 -11 7 -6 19 7 21 -6 4 -25 -11 -11 -10 -13 4 -8 10 3 20 1 24 -5 4 -6 3 -8
-4 -4 -6 3 -13 2 -16 -3 -3 -5 1 -12 10 -15 13 -5 14 -9 4 -21 -10 -12 -10
-15 1 -15 11 0 11 -2 -1 -10 -10 -6 -11 -10 -2 -10 6 0 12 -7 12 -16 0 -8 -4
-13 -8 -10 -4 2 -8 -4 -8 -14 0 -13 4 -16 12 -9 14 12 7 -39 -9 -59 -8 -9 -7
-12 3 -10 7 2 15 -3 17 -9 3 -8 -3 -13 -14 -13 -11 0 -14 -3 -7 -8 14 -9 14
-42 0 -42 -5 0 -1 -6 9 -14 18 -13 18 -14 0 -23 -13 -7 -14 -12 -6 -18 9 -5 7
-11 -7 -21 -20 -14 -23 -29 -9 -50 3 -6 -4 -23 -17 -37 -13 -14 -21 -28 -18
-31 3 -3 0 -6 -7 -6 -7 0 -9 -4 -6 -10 3 -5 -1 -10 -10 -10 -10 0 -13 -5 -9
-12 5 -8 2 -9 -10 -5 -9 4 -15 3 -12 -1 3 -5 -4 -14 -14 -22 -10 -8 -17 -17
-14 -22 3 -4 -1 -5 -9 -2 -9 3 -23 -6 -35 -21 -12 -15 -25 -24 -30 -21 -8 5
-35 -20 -41 -39 -1 -5 -5 -12 -8 -15 -4 -3 -3 1 1 8 12 20 -8 14 -24 -8 -10
-14 -17 -17 -27 -8 -11 8 -12 7 -7 -6 3 -9 1 -16 -6 -16 -6 0 -9 -4 -6 -9 4
-5 -4 -7 -16 -3 -14 3 -19 1 -14 -6 4 -7 -3 -14 -19 -18 -14 -3 -25 -10 -25
-15 0 -5 -9 -9 -21 -9 -11 0 -17 -4 -14 -10 3 -6 2 -10 -4 -10 -5 0 -12 6 -14
13 -4 7 -6 6 -6 -4 -1 -9 -9 -23 -18 -30 -11 -10 -14 -10 -9 -1 4 6 3 12 -2
12 -6 0 -13 -7 -16 -16 -3 -9 -13 -14 -21 -11 -10 4 -12 1 -8 -11 6 -15 5 -16
-12 -2 -11 9 -16 10 -11 3 4 -8 2 -13 -4 -13 -6 0 -9 -4 -5 -9 3 -6 -6 -8 -20
-5 -17 3 -31 -2 -42 -16 -18 -21 -39 -28 -27 -9 4 8 0 8 -15 0 -12 -7 -26 -9
-31 -6 -6 4 -13 0 -16 -9 -3 -9 -12 -12 -21 -9 -10 4 -14 2 -10 -4 8 -12 -11
-12 -30 0 -6 4 -14 3 -18 -3 -4 -6 -11 -8 -16 -5 -5 4 -9 2 -9 -4 0 -6 -7 -8
-15 -5 -8 4 -12 11 -8 17 3 6 1 7 -6 3 -6 -4 -9 -11 -6 -16 3 -5 1 -11 -5 -15
-5 -3 -10 -1 -10 6 0 8 -4 8 -13 1 -7 -6 -23 -9 -35 -5 -15 3 -22 1 -22 -8 0
-11 -2 -11 -10 1 -8 12 -10 12 -10 1 0 -10 -3 -11 -13 -3 -10 9 -17 6 -30 -9
-14 -16 -21 -18 -38 -8 -16 8 -20 8 -14 0 4 -8 -2 -10 -20 -7 -33 6 -57 -3
-48 -18 4 -6 0 -6 -9 2 -13 10 -18 10 -24 1 -5 -8 -3 -9 6 -4 9 5 11 4 6 -4
-4 -6 -18 -9 -31 -7 -17 3 -22 1 -18 -10 4 -10 -3 -14 -27 -14 -25 0 -31 -3
-26 -16 3 -8 2 -12 -4 -9 -6 3 -10 0 -10 -7 0 -9 -3 -9 -10 2 -9 14 -14 7 -11
-13 1 -5 -3 -5 -9 -2 -6 4 -18 -1 -26 -11 -9 -11 -13 -13 -9 -7 4 9 1 11 -10
7 -9 -4 -14 -13 -11 -21 3 -8 1 -11 -4 -8 -6 3 -10 0 -10 -7 0 -9 -3 -9 -10 2
-9 13 -14 7 -11 -12 0 -5 -5 -8 -12 -9 -25 -1 -49 -8 -55 -15 -4 -4 2 -4 12 0
16 5 17 4 6 -9 -7 -8 -17 -12 -23 -8 -5 3 -19 -5 -29 -18 -11 -13 -17 -17 -13
-9 4 10 1 9 -8 -2 -8 -10 -20 -18 -26 -18 -7 0 -10 -4 -6 -9 3 -5 0 -13 -6
-17 -8 -5 -9 -3 -4 6 5 8 3 11 -6 8 -8 -3 -13 -10 -12 -15 1 -5 -7 -10 -19
-10 -23 -2 -68 -30 -67 -41 3 -19 -2 -23 -15 -13 -11 9 -15 8 -20 -5 -4 -9
-12 -14 -22 -10 -8 3 -12 2 -9 -4 3 -6 -5 -14 -19 -20 -14 -5 -26 -14 -26 -20
0 -5 -5 -10 -11 -10 -5 0 -7 6 -3 13 4 6 -4 0 -19 -15 -18 -19 -31 -26 -44
-21 -16 6 -16 5 -5 -9 12 -15 10 -16 -17 -13 -17 2 -34 -1 -37 -7 -5 -7 -2 -8
7 -3 12 7 12 5 1 -6 -11 -12 -14 -12 -21 0 -7 10 -10 8 -16 -9 -4 -12 -10 -19
-14 -14 -3 5 -14 10 -24 10 -15 2 -16 -1 -5 -15 7 -9 8 -13 4 -9 -5 4 -16 2
-24 -5 -13 -9 -14 -9 -8 1 4 6 2 12 -3 12 -6 0 -11 -6 -11 -12 0 -8 -3 -9 -8
-3 -6 9 -27 11 -42 5 -17 -6 -50 -5 -50 2 0 11 -23 6 -32 -7 -5 -6 -8 -5 -8 3
0 6 -5 12 -11 12 -5 0 -7 -6 -3 -12 6 -10 4 -10 -8 0 -11 9 -17 9 -20 2 -2 -6
-14 -11 -28 -12 -14 -1 -31 -6 -39 -12 -11 -8 -13 -8 -7 1 5 9 2 11 -8 7 -9
-3 -13 -11 -9 -18 4 -6 -1 -5 -10 3 -13 10 -17 10 -17 1 0 -7 -7 -10 -16 -6
-12 5 -15 2 -10 -9 3 -10 2 -13 -5 -10 -5 4 -17 1 -26 -7 -12 -9 -15 -9 -9 0
9 16 -4 15 -26 -2 -10 -7 -14 -17 -10 -22 4 -4 -1 -2 -10 5 -14 10 -18 11 -18
1 0 -7 -8 -10 -20 -7 -13 3 -18 1 -13 -6 4 -6 0 -8 -11 -4 -10 4 -19 1 -22 -7
-3 -8 -14 -13 -25 -11 -13 3 -23 -3 -29 -18 -5 -12 -9 -16 -9 -8 -1 11 -4 11
-16 1 -8 -6 -19 -9 -24 -6 -5 4 -13 1 -17 -5 -5 -8 -3 -9 7 -4 8 5 11 4 6 -1
-5 -5 -18 -9 -30 -9 -16 0 -21 -6 -20 -20 1 -11 0 -14 -3 -7 -7 15 -34 16 -34
1 0 -6 -9 -9 -19 -6 -14 3 -18 1 -14 -9 3 -9 -2 -12 -16 -9 -14 2 -22 -3 -27
-17 -5 -16 -8 -18 -15 -7 -7 11 -9 11 -9 1 0 -7 -5 -10 -10 -7 -5 3 -10 -2
-10 -12 0 -15 -2 -16 -10 -3 -9 13 -14 7 -11 -12 0 -5 -4 -8 -9 -8 -18 0 -60
-54 -54 -69 4 -11 2 -12 -11 -1 -13 10 -15 9 -15 -9 0 -14 -4 -20 -11 -15 -7
4 -10 1 -7 -7 3 -8 -6 -22 -19 -32 -16 -13 -22 -26 -19 -43 3 -14 1 -22 -5
-19 -5 4 -9 -1 -9 -9 0 -9 -5 -16 -11 -16 -5 0 -7 5 -3 12 4 6 3 8 -3 5 -6 -4
-9 -18 -8 -31 2 -14 -3 -27 -12 -30 -8 -3 -11 -10 -8 -16 3 -5 -2 -10 -12 -10
-17 -1 -17 -1 0 -14 16 -12 16 -14 2 -20 -11 -4 -14 -2 -9 6 4 7 3 8 -4 4 -7
-4 -10 -17 -8 -29 2 -14 -4 -27 -18 -35 -14 -9 -15 -12 -3 -8 21 7 22 -4 2
-30 -17 -23 -19 -38 -3 -28 7 5 8 3 2 -7 -12 -20 -17 -62 -5 -55 5 3 8 -1 7
-11 -2 -9 -11 -20 -22 -24 -10 -4 -14 -8 -8 -8 20 -1 24 -29 8 -46 -9 -8 -11
-15 -6 -15 6 0 13 -7 16 -16 5 -13 3 -14 -7 -6 -10 8 -13 6 -14 -9 -1 -14 3
-19 13 -15 8 3 14 1 14 -4 0 -6 -6 -10 -13 -10 -7 0 -13 -11 -13 -25 0 -16 5
-24 12 -21 8 3 11 -1 7 -9 -3 -8 -8 -13 -12 -10 -10 5 -8 -57 2 -73 5 -7 13
-9 19 -6 7 5 8 2 4 -5 -5 -7 -15 -10 -24 -6 -14 5 -14 3 1 -13 22 -24 22 -39
0 -21 -15 13 -15 12 -3 -8 8 -12 18 -19 24 -16 5 4 6 1 1 -8 -11 -17 -16 -61
-7 -55 4 2 13 -7 19 -21 10 -20 10 -23 -2 -13 -10 8 -15 8 -21 -1 -4 -8 -3 -9
4 -5 7 4 12 1 12 -8 0 -9 5 -16 10 -16 6 0 10 -5 10 -11 0 -5 -4 -8 -9 -5 -13
9 -7 -22 7 -36 15 -15 15 -28 1 -28 -5 0 -7 5 -3 12 5 7 3 8 -5 4 -9 -6 -8
-12 4 -26 11 -12 14 -26 9 -44 -3 -14 -2 -32 4 -39 5 -6 9 -24 7 -39 -2 -16 1
-31 7 -34 5 -3 2 -15 -9 -26 -13 -16 -15 -22 -5 -25 10 -4 10 -8 0 -21 -8 -10
-9 -13 -1 -9 12 8 12 -10 0 -30 -4 -6 -3 -14 3 -18 13 -8 3 -25 -13 -25 -7 0
-6 4 3 10 9 6 10 10 3 10 -16 0 -26 -17 -13 -25 6 -3 8 -17 6 -30 -4 -19 -1
-22 12 -18 15 6 15 4 4 -9 -11 -14 -10 -17 9 -23 15 -5 18 -10 9 -15 -8 -5 -7
-9 5 -14 10 -3 15 -12 12 -21 -4 -10 -1 -12 11 -8 9 3 14 3 10 -1 -8 -10 14
-36 24 -29 4 2 5 -4 1 -13 -5 -14 -3 -16 12 -11 15 6 16 5 6 -7 -9 -11 -9 -16
0 -22 8 -5 10 -3 5 7 -4 8 -1 6 7 -4 9 -10 13 -30 11 -44 -3 -15 -1 -22 6 -18
7 4 7 -2 0 -20 -13 -33 -13 -31 6 -49 14 -15 14 -16 -3 -16 -15 0 -16 -2 -3
-10 8 -5 11 -10 5 -10 -5 0 -3 -5 5 -10 13 -8 12 -10 -4 -10 -20 0 -20 0 0
-16 15 -13 16 -15 2 -10 -12 3 -15 1 -11 -10 3 -7 10 -14 17 -14 6 0 4 -5 -4
-10 -13 -9 -13 -10 0 -11 10 0 8 -3 -5 -9 -18 -8 -18 -9 -2 -9 10 -1 16 -5 13
-10 -4 -5 0 -12 6 -14 8 -3 6 -6 -5 -6 -10 -1 -15 -6 -12 -11 12 -19 24 -70
15 -65 -15 9 -19 -23 -4 -36 12 -10 12 -14 2 -20 -10 -7 -10 -9 0 -9 6 0 12
-5 12 -11 0 -5 -6 -7 -12 -3 -10 6 -10 4 -2 -7 6 -8 10 -27 9 -42 -1 -15 2
-30 7 -33 5 -3 4 -12 -3 -20 -9 -11 -8 -14 2 -14 10 0 10 -3 1 -12 -15 -15
-15 -28 -1 -28 5 0 7 6 3 13 -5 8 -2 8 9 -2 18 -14 24 -26 9 -17 -5 3 -9 -8
-10 -25 0 -16 3 -27 7 -25 4 3 8 -1 8 -9 0 -8 -3 -12 -7 -10 -3 2 -6 -5 -6
-15 0 -10 4 -16 9 -13 6 3 8 -8 5 -26 -3 -20 0 -31 8 -31 6 0 14 -11 16 -25 3
-13 1 -22 -3 -19 -5 3 -9 1 -9 -5 0 -5 4 -12 10 -16 5 -3 6 -13 3 -22 -4 -11
-3 -14 5 -9 8 5 10 2 6 -8 -3 -9 -11 -13 -18 -9 -6 3 -3 -3 8 -15 11 -13 16
-30 13 -42 -3 -11 0 -23 5 -27 7 -4 8 -1 3 7 -5 9 -4 11 4 6 6 -4 8 -13 4 -19
-12 -19 -8 -54 8 -73 7 -10 9 -15 3 -11 -7 4 -14 0 -18 -8 -3 -8 0 -17 6 -21
7 -5 8 -2 3 7 -8 12 -6 12 8 0 18 -15 23 -26 7 -16 -5 3 -10 -1 -10 -9 0 -9 6
-16 13 -16 8 0 7 -4 -3 -10 -13 -9 -13 -10 0 -10 13 0 13 -1 0 -10 -13 -9 -13
-10 0 -10 13 0 13 -1 0 -10 -13 -9 -13 -10 0 -10 13 0 13 -1 0 -10 -8 -5 -10
-10 -4 -10 7 0 14 -7 17 -14 4 -11 1 -13 -11 -9 -14 6 -15 4 -5 -8 10 -12 10
-18 0 -29 -9 -9 -9 -11 0 -6 15 8 14 -33 -1 -53 -8 -11 -8 -13 1 -8 15 9 14
-32 -1 -52 -8 -11 -8 -13 1 -8 8 5 11 -3 11 -25 -1 -17 4 -34 10 -36 7 -2 10
-8 6 -13 -3 -5 2 -9 10 -9 9 0 16 -5 16 -11 0 -5 5 -7 10 -4 6 4 10 3 9 -2 -4
-22 2 -35 15 -30 10 4 13 1 9 -10 -3 -8 0 -19 8 -24 11 -7 11 -9 1 -9 -10 0
-10 -3 0 -14 7 -8 17 -12 21 -9 5 3 3 -5 -5 -16 -11 -18 -11 -23 1 -30 8 -5 9
-11 3 -15 -6 -3 -9 -12 -7 -19 10 -40 18 -56 28 -50 6 3 7 1 3 -6 -4 -6 -11
-9 -16 -6 -5 3 -12 0 -16 -6 -4 -7 -3 -10 2 -7 5 3 15 0 21 -7 10 -11 9 -15
-5 -18 -14 -4 -14 -5 3 -6 17 -1 18 -3 5 -11 -12 -8 -12 -10 -1 -10 11 0 11
-3 2 -14 -9 -11 -9 -20 -2 -35 6 -11 11 -28 11 -38 0 -15 -2 -16 -10 -3 -6 9
-10 10 -10 3 0 -6 4 -15 10 -18 6 -3 10 -19 10 -34 0 -15 6 -33 13 -40 10 -10
8 -11 -8 -6 -16 6 -16 3 5 -14 l25 -20 -24 6 c-22 6 -23 5 -10 -9 7 -9 16 -15
19 -13 3 2 5 -17 4 -43 0 -31 5 -51 18 -64 11 -11 13 -18 5 -18 -8 0 -7 -4 3
-10 13 -9 13 -10 0 -10 -11 0 -12 -2 -3 -8 7 -4 13 -22 15 -39 1 -17 5 -30 9
-27 4 2 13 -4 20 -13 10 -11 10 -14 2 -9 -9 5 -11 2 -7 -8 3 -9 11 -16 16 -16
6 0 7 -7 4 -16 -4 -10 -2 -13 6 -8 7 5 9 0 6 -14 -4 -12 -3 -20 1 -18 4 3 13
1 21 -5 11 -6 11 -9 2 -9 -9 0 -10 -5 -3 -18 7 -13 7 -22 0 -29 -8 -8 -7 -13
2 -18 7 -5 10 -4 6 2 -3 5 0 10 8 10 11 0 12 -5 3 -20 -8 -16 -7 -23 6 -33 13
-9 14 -13 4 -16 -10 -4 -10 -9 2 -23 8 -10 10 -16 4 -12 -6 3 -11 0 -11 -8 0
-8 4 -12 8 -10 12 8 17 -17 13 -67 -2 -27 1 -48 5 -48 5 0 12 -7 15 -16 3 -8
2 -12 -3 -9 -5 3 -13 0 -17 -6 -4 -7 -3 -9 3 -6 6 4 19 -3 29 -15 11 -12 13
-18 7 -14 -23 13 -14 -4 15 -29 17 -15 22 -24 13 -25 -11 0 -10 -4 4 -13 11
-9 15 -19 10 -27 -5 -9 -4 -11 3 -6 7 4 12 1 12 -9 0 -10 5 -13 13 -9 8 5 7 2
-2 -9 -12 -15 -12 -17 4 -11 14 6 16 4 10 -6 -5 -8 1 -20 16 -32 13 -11 19
-17 12 -14 -7 4 -10 -1 -8 -11 2 -10 4 -22 4 -26 1 -5 5 -5 11 -2 5 3 10 1 10
-5 0 -6 4 -8 10 -5 7 4 7 -3 0 -20 -9 -23 -7 -28 8 -32 14 -3 18 -11 14 -29
-3 -15 1 -26 11 -30 9 -3 13 -12 10 -21 -5 -12 -3 -14 8 -8 12 7 12 6 1 -7
-10 -13 -10 -18 -1 -24 8 -5 9 -3 4 6 -5 8 -4 11 2 7 6 -4 8 -18 5 -32 -3 -16
0 -25 8 -25 9 0 9 -4 -1 -17 -10 -11 -10 -14 -1 -9 12 7 14 3 14 -46 1 -16 5
-25 11 -21 6 4 8 0 4 -9 -3 -9 2 -26 10 -39 9 -12 11 -19 5 -15 -7 4 -12 2
-12 -3 0 -6 4 -11 8 -11 5 0 8 -14 7 -31 -1 -19 4 -33 12 -36 12 -5 12 -7 1
-14 -8 -6 -9 -9 -2 -9 7 0 15 -7 18 -16 6 -15 4 -15 -10 -3 -16 13 -16 12 -5
-10 7 -13 11 -38 9 -56 -2 -19 -1 -33 2 -33 18 2 21 -4 9 -20 -7 -9 -9 -14 -5
-10 5 4 15 3 23 -3 16 -14 18 -43 1 -33 -7 4 -8 3 -4 -4 4 -7 13 -12 21 -12 8
0 12 -8 10 -20 -2 -11 3 -24 12 -29 9 -5 21 -24 27 -42 l11 -34 4705 -2 c2588
-1 4711 0 4718 2 10 4 10 9 0 24 -7 11 -16 17 -22 14 -5 -3 -6 -1 -2 5 3 6 1
14 -5 18 -8 4 -7 9 2 15 11 7 10 9 -5 9 -14 0 -17 6 -13 26 3 16 0 28 -9 31
-20 8 -17 23 4 17 16 -5 16 -5 0 6 -10 6 -18 22 -18 36 0 18 -4 23 -12 18 -9
-5 -9 -2 1 9 11 14 11 17 0 17 -11 0 -11 2 1 10 9 5 10 10 3 10 -7 0 -9 11 -7
30 4 24 1 30 -13 31 -16 0 -16 1 2 9 11 5 15 9 8 9 -7 1 -10 8 -6 18 4 9 2 14
-3 10 -6 -3 -11 3 -11 14 -2 18 0 19 15 7 9 -7 7 0 -6 16 -17 23 -20 31 -10
38 10 6 10 8 -2 8 -12 0 -13 2 -1 9 11 7 10 11 -5 20 -18 10 -18 10 0 11 20 0
20 0 0 16 -10 8 -12 12 -4 8 10 -5 8 0 -4 15 -20 22 -20 22 0 15 15 -5 14 -2
-6 16 -14 12 -19 19 -13 15 9 -4 12 2 11 19 -1 15 -8 26 -15 26 -7 0 -13 5
-13 11 0 5 4 8 9 4 5 -3 13 0 17 6 4 7 3 10 -2 7 -5 -3 -15 0 -22 8 -7 8 -10
14 -6 14 3 0 1 7 -6 15 -10 12 -9 15 6 15 16 0 16 2 4 9 -8 6 -19 7 -25 3 -5
-3 -3 3 5 13 9 11 10 16 3 11 -8 -4 -13 -1 -13 9 0 9 -4 13 -10 10 -6 -4 -7 1
-3 11 5 14 3 16 -12 11 -14 -6 -16 -5 -6 6 8 11 5 20 -14 41 -26 28 -33 42
-15 31 6 -3 7 1 4 9 -3 9 -10 13 -15 10 -8 -4 -14 17 -10 39 0 4 -3 7 -9 7 -5
0 -10 7 -10 15 0 7 -7 18 -16 23 -11 6 -13 11 -5 16 6 4 11 13 11 19 0 8 -3 8
-9 -1 -6 -10 -11 -9 -22 4 -9 12 -10 15 -1 10 6 -4 12 -3 12 3 0 5 -5 13 -10
16 -6 4 -7 11 -4 17 5 7 1 9 -9 5 -10 -3 -17 -2 -17 3 0 6 8 10 18 10 14 0 15
2 2 9 -8 6 -19 7 -25 3 -5 -3 -4 1 3 10 10 13 11 22 3 37 -8 14 -8 22 0 27 8
5 8 9 -1 14 -9 6 -9 13 -1 28 7 14 8 23 1 27 -7 4 -6 13 1 27 8 15 8 19 0 13
-8 -4 -10 1 -7 18 2 14 -2 37 -10 52 -8 15 -14 34 -14 41 0 8 -4 14 -10 14 -5
0 -10 7 -10 16 0 9 -5 12 -12 8 -8 -5 -7 0 2 11 14 17 13 18 -2 12 -11 -4 -17
-2 -15 6 1 7 -4 11 -10 10 -7 -2 -16 9 -19 23 -4 15 -12 23 -20 20 -9 -3 -11
0 -7 11 4 11 2 14 -5 9 -7 -4 -12 -2 -12 4 0 6 -4 8 -10 5 -6 -3 -7 1 -4 9 4
9 1 16 -6 16 -7 0 -10 7 -6 16 3 8 2 12 -4 9 -6 -3 -10 -1 -10 5 0 6 -4 8 -10
5 -5 -3 -10 1 -10 9 0 9 -5 16 -12 16 -6 0 -8 3 -4 7 3 4 -4 13 -16 21 -13 7
-15 11 -5 8 9 -3 17 -1 17 4 0 6 -7 10 -15 10 -8 0 -14 5 -13 12 2 7 -3 13 -9
14 -7 1 -16 2 -19 3 -4 0 -1 7 5 15 9 11 9 16 0 21 -6 4 -15 1 -20 -6 -5 -8
-9 -9 -9 -3 0 5 6 16 13 23 10 11 10 13 0 7 -9 -5 -13 1 -13 20 0 22 -3 24
-14 15 -12 -10 -14 -9 -12 6 3 17 -2 26 -40 66 -11 13 -18 29 -16 37 3 8 1 12
-3 8 -4 -4 -16 2 -26 14 -23 26 -24 29 -1 22 9 -3 7 0 -6 8 -18 11 -20 16 -10
27 11 12 10 13 -7 7 -11 -4 -16 -4 -13 0 4 4 2 16 -4 28 -9 18 -9 19 3 11 9
-6 8 -3 -1 5 -9 9 -14 22 -12 29 3 8 1 11 -4 8 -12 -7 -11 34 1 53 5 8 4 11
-3 6 -6 -3 -13 -2 -17 4 -3 5 -1 10 5 10 6 0 8 5 5 10 -4 6 -10 8 -14 6 -4 -3
-8 1 -8 9 0 8 5 11 11 8 6 -3 5 0 -1 8 -7 7 -13 17 -13 22 0 4 6 5 13 1 8 -6
8 -3 -1 9 -8 9 -10 22 -6 28 4 8 3 9 -4 5 -7 -4 -12 -4 -13 1 -1 4 -3 22 -5
38 -3 17 -5 38 -5 48 0 15 -10 21 -30 19 -4 -1 -6 6 -5 16 1 12 -6 17 -26 16
-15 0 -25 3 -23 7 3 3 -6 7 -20 7 -14 0 -22 -4 -19 -9 3 -5 -2 -6 -11 -3 -13
5 -13 9 -3 23 10 13 10 14 -1 4 -7 -6 -21 -9 -30 -6 -14 4 -14 3 -1 -6 8 -6
11 -11 6 -11 -6 0 -20 9 -32 21 -16 15 -24 17 -29 8 -6 -8 -4 -10 5 -4 8 5 11
4 6 -3 -4 -6 -13 -9 -21 -6 -8 4 -12 10 -9 15 3 5 -2 6 -10 3 -10 -4 -18 1
-22 12 -3 11 -10 27 -15 36 -5 11 -5 19 2 24 6 3 8 12 5 19 -3 8 0 16 7 19 8
3 7 5 -2 5 -11 1 -10 5 5 17 10 8 13 12 5 8 -10 -5 -13 -3 -8 8 3 9 0 21 -6
28 -10 10 -8 10 8 2 21 -11 21 -13 16 76 -1 8 -6 10 -13 6 -10 -6 -10 -5 0 8
10 12 10 17 -1 27 -8 6 -18 7 -23 3 -4 -4 -2 2 6 12 10 13 10 17 3 12 -8 -4
-13 -2 -13 4 0 6 -5 8 -10 5 -5 -3 -10 1 -10 9 0 9 -5 16 -11 16 -5 0 -7 4 -4
10 3 5 0 10 -7 10 -16 0 -40 48 -27 56 14 8 11 26 -3 18 -7 -4 -4 3 7 16 11
13 14 20 8 16 -8 -4 -13 -2 -13 6 0 8 6 20 13 27 8 10 8 12 0 7 -6 -3 -14 -2
-18 4 -3 5 -2 10 4 10 15 0 6 31 -12 42 -9 5 -17 19 -17 31 0 18 -2 19 -10 7
-8 -12 -10 -10 -10 8 0 13 -4 20 -10 17 -6 -3 -10 3 -10 15 0 12 -4 18 -10 15
-5 -3 -10 -1 -10 5 0 7 -8 19 -18 28 -10 10 -12 13 -5 8 10 -6 12 -4 7 8 -3 9
-10 16 -14 16 -4 0 -11 7 -14 16 -6 15 -4 15 11 3 17 -13 17 -13 1 6 -11 14
-16 33 -13 58 2 28 -1 37 -13 37 -13 0 -12 4 4 22 10 12 15 19 9 16 -5 -3 -16
0 -23 8 -11 12 -10 14 3 14 8 0 15 5 15 11 0 5 -4 8 -9 4 -5 -3 -12 -1 -16 5
-3 5 0 10 7 10 10 0 10 2 -1 9 -9 6 -10 10 -2 16 9 5 9 10 0 21 -9 11 -8 14 2
14 9 0 10 3 3 8 -6 4 -17 18 -24 32 -12 23 -12 24 3 11 21 -17 22 -8 1 13 -10
10 -11 16 -4 16 7 0 2 9 -11 20 -21 17 -21 19 -4 13 18 -6 18 -5 7 10 -8 9
-11 21 -7 27 3 5 0 13 -9 16 -9 3 -12 12 -9 21 4 11 2 14 -5 9 -16 -10 -15 6
1 23 8 9 8 12 0 7 -7 -4 -14 5 -18 24 -4 17 -11 28 -16 25 -5 -4 -6 1 -3 10 4
9 -2 25 -12 37 -11 12 -13 18 -7 14 9 -5 11 -2 7 8 -3 9 -10 13 -15 10 -5 -3
-9 0 -9 5 0 6 5 11 12 11 6 0 4 6 -7 13 -12 9 -15 19 -10 28 5 8 4 11 0 6 -7
-6 -29 40 -38 78 -1 6 -11 16 -22 23 -18 12 -18 13 -1 7 15 -4 17 -3 8 8 -7 8
-8 18 -4 22 4 5 1 4 -7 0 -11 -6 -13 -4 -8 8 3 9 3 16 -1 16 -19 -3 -23 2 -12
16 10 12 9 15 -6 15 -16 0 -17 2 -4 10 13 8 12 10 -3 10 -10 0 -15 5 -12 10 3
6 0 10 -7 10 -9 0 -9 3 2 10 12 8 12 10 -5 11 -12 0 -15 3 -7 6 10 4 8 9 -7
20 -12 8 -21 24 -21 36 -1 27 -24 59 -36 49 -4 -4 -2 2 6 12 10 13 10 17 3 12
-9 -5 -13 0 -13 14 0 12 -4 19 -9 16 -5 -3 -12 1 -15 10 -3 8 -2 12 4 9 6 -3
10 -1 10 4 0 6 -5 11 -11 11 -5 0 -7 5 -4 10 3 6 1 10 -6 10 -9 0 -9 3 0 14 9
10 9 16 1 21 -8 5 -8 11 -1 19 6 7 8 16 4 20 -11 11 -12 39 -2 58 5 10 6 18 1
18 -5 0 -9 7 -9 15 0 11 4 12 13 4 8 -7 14 -6 20 2 4 7 3 9 -2 6 -6 -3 -15 3
-22 13 -9 16 -9 18 2 14 8 -3 17 0 22 7 4 7 3 10 -4 5 -6 -3 -13 -2 -17 4 -3
5 -1 10 5 10 6 0 8 5 5 10 -4 6 -11 7 -17 4 -7 -5 -8 -2 -4 5 5 7 15 10 23 7
9 -4 11 -2 6 6 -10 17 -11 48 -1 42 4 -3 8 0 8 5 0 6 -6 11 -12 11 -9 0 -8 4
2 10 11 7 11 10 2 10 -10 0 -10 5 -2 20 8 15 8 20 -2 20 -6 0 -4 6 7 13 14 11
15 16 5 22 -9 6 -11 4 -5 -5 5 -9 4 -11 -3 -6 -9 5 -8 12 1 27 10 16 9 21 -3
29 -12 8 -12 10 4 10 19 0 19 0 1 13 -13 10 -15 16 -6 22 9 5 7 11 -9 22 -18
12 -19 17 -8 31 11 13 11 14 -1 7 -11 -6 -13 -3 -8 14 4 17 3 20 -8 11 -9 -8
-14 -6 -19 6 -3 9 -3 21 1 27 3 7 3 9 -1 5 -10 -8 -36 14 -29 24 2 4 -3 5 -11
2 -11 -4 -16 0 -16 11 0 9 -4 13 -10 10 -5 -3 -10 1 -10 9 0 14 -12 20 -32 17
-5 0 -8 6 -8 16 0 9 -3 13 -7 10 -3 -4 -12 1 -19 11 -7 9 -22 18 -33 18 -37 2
-41 4 -41 15 0 8 6 7 18 -2 15 -12 16 -12 5 2 -8 10 -25 14 -48 13 -21 -2 -33
1 -30 6 4 6 -3 10 -15 10 -13 0 -19 4 -14 11 4 7 -1 7 -16 -1 -18 -10 -21 -9
-15 1 6 9 4 11 -8 6 -9 -3 -18 1 -21 10 -4 8 -13 13 -21 9 -8 -3 -15 0 -15 7
0 8 -4 6 -10 -3 -7 -11 -10 -11 -10 -2 0 8 -5 10 -12 6 -8 -5 -9 -2 -4 12 4
10 4 15 0 12 -4 -4 -15 -3 -25 2 -11 7 -20 7 -24 0 -3 -5 -12 -7 -21 -3 -12 4
-12 8 -2 21 11 13 10 14 -9 4 -16 -9 -22 -9 -26 2 -4 9 -15 12 -34 8 -24 -4
-26 -3 -16 9 10 12 8 15 -7 15 -10 0 -16 -4 -14 -8 9 -14 -4 -9 -20 8 -9 9
-16 11 -16 4 0 -6 -5 -8 -10 -5 -6 4 -7 11 -4 17 5 7 1 9 -9 5 -10 -4 -17 -2
-17 5 0 7 -5 6 -15 -2 -12 -10 -15 -10 -15 4 0 16 -7 19 -42 19 -10 0 -18 4
-18 10 0 5 -6 5 -14 -2 -11 -9 -14 -8 -12 6 1 14 -5 17 -28 15 -21 -3 -26 -1
-20 10 6 11 5 11 -8 0 -13 -10 -18 -9 -29 5 -13 17 -13 17 6 3 19 -14 19 -14
6 3 -10 13 -17 15 -27 6 -11 -9 -14 -8 -14 1 0 7 -8 10 -20 7 -11 -3 -18 -1
-14 4 3 5 0 9 -6 9 -6 0 -9 4 -6 8 3 5 -1 9 -8 9 -8 0 -12 -7 -9 -16 4 -13 2
-13 -10 1 -8 10 -17 15 -20 11 -4 -3 -7 -1 -7 7 0 10 -4 10 -17 -1 -11 -10
-14 -10 -9 -1 4 7 1 12 -9 12 -9 0 -13 5 -10 10 4 6 3 10 -2 9 -26 -5 -53 2
-47 12 4 7 -1 7 -16 -1 -15 -8 -20 -8 -16 -1 6 10 -21 17 -47 12 -5 -1 -5 4
-1 10 5 9 2 10 -9 6 -12 -4 -17 -1 -17 10 0 13 -3 13 -15 3 -10 -8 -15 -9 -15
-2 0 6 -7 9 -15 5 -10 -3 -15 -1 -13 7 2 7 -3 15 -11 18 -9 3 -11 0 -6 -9 6
-11 5 -12 -6 -1 -7 6 -21 12 -32 12 -11 0 -15 4 -11 11 4 8 -1 9 -16 4 -15 -5
-20 -4 -16 4 5 7 1 9 -8 5 -10 -4 -16 -1 -16 7 0 11 -3 11 -10 -1 -8 -12 -10
-10 -10 9 0 24 0 24 -16 5 -8 -10 -13 -14 -10 -8 3 6 -6 16 -21 23 -22 10 -25
10 -17 -1 5 -8 1 -5 -8 5 -12 12 -18 15 -18 6 0 -8 -6 -5 -16 7 -8 10 -13 14
-10 8 3 -6 -1 -11 -8 -11 -8 0 -12 7 -9 15 5 12 2 12 -16 2 -20 -10 -23 -9
-28 10 -4 16 -8 18 -14 8 -7 -10 -9 -10 -9 2 0 13 -1 13 -10 0 -5 -8 -10 -10
-10 -4 0 19 -48 46 -56 32 -5 -7 -3 -8 6 -3 9 6 11 4 5 -5 -6 -10 -12 -8 -26
8 -12 15 -19 18 -22 10 -3 -8 -6 -6 -6 5 -1 9 -6 17 -12 17 -5 0 -7 -5 -3 -12
4 -7 -8 -1 -26 12 -18 13 -30 19 -26 12 4 -7 3 -12 -2 -12 -6 0 -13 7 -16 16
-5 14 -9 14 -23 3 -14 -12 -16 -12 -8 0 6 11 4 13 -8 8 -9 -3 -18 0 -21 9 -3
8 -9 14 -13 13 -27 -4 -63 3 -58 11 4 6 -5 10 -20 10 -18 0 -24 4 -19 13 5 9
4 9 -6 0 -10 -9 -17 -7 -31 10 -18 20 -19 21 -13 2 6 -18 5 -18 -15 3 -22 23
-37 30 -26 12 10 -15 -28 1 -42 18 -9 10 -13 12 -13 4 0 -9 -5 -10 -19 -3 -10
6 -21 8 -24 5 -3 -3 -11 3 -18 15 -10 15 -16 17 -26 9 -9 -7 -13 -7 -13 1 0 7
-4 9 -10 6 -5 -3 -10 2 -10 12 0 15 -2 16 -10 3 -8 -12 -10 -12 -10 -1 0 9 -8
12 -26 8 -20 -4 -27 1 -35 21 -7 19 -13 22 -21 14 -16 -16 -31 -15 -22 1 5 7
0 6 -11 -3 -11 -9 -16 -10 -11 -2 5 8 0 12 -13 12 -12 0 -21 5 -21 10 0 6 -5
10 -11 10 -5 0 -7 -5 -4 -11 4 -6 -2 -5 -13 2 -12 7 -18 17 -16 21 3 4 0 8 -5
8 -6 0 -11 -6 -11 -12 0 -10 -3 -9 -9 1 -5 7 -14 10 -20 7 -6 -4 -11 0 -11 8
0 9 -5 16 -11 16 -5 0 -7 -6 -3 -12 6 -9 3 -9 -9 0 -9 8 -21 11 -27 7 -5 -3
-10 1 -10 9 0 9 -4 16 -10 16 -5 0 -10 -5 -10 -12 0 -6 -7 -3 -16 8 -8 10 -13
12 -9 4 5 -12 4 -12 -7 1 -7 9 -19 14 -27 11 -9 -3 -11 0 -6 8 6 9 3 9 -15 0
-20 -11 -22 -10 -16 5 6 16 4 16 -11 4 -11 -9 -14 -10 -9 -1 7 12 -3 15 -47
15 -13 0 -16 5 -12 21 2 11 2 15 -1 9 -3 -7 -12 -13 -20 -13 -9 0 -13 4 -10 8
3 5 -1 9 -9 9 -8 0 -12 -4 -9 -9 4 -5 -2 -5 -12 0 -50 26 -72 33 -106 35 -28
2 -34 5 -26 15 8 9 7 11 -6 6 -9 -4 -16 -1 -16 6 0 9 -3 10 -14 1 -11 -9 -16
-5 -26 19 -9 22 -16 27 -24 21 -9 -8 -12 -2 -10 19 1 19 -2 28 -9 23 -7 -4 -8
0 -3 12 5 15 4 16 -8 6 -12 -10 -13 -8 -9 10 5 18 3 21 -12 15 -15 -5 -16 -4
-6 8 11 13 9 15 -8 11 -15 -3 -21 1 -21 13 0 15 -2 15 -10 2 -7 -12 -10 -12
-10 -1 0 7 -6 11 -15 8 -8 -4 -17 -1 -21 5 -5 7 -2 8 7 3 8 -4 4 2 -8 14 -13
12 -23 26 -23 32 0 6 -6 7 -12 3 -9 -5 -9 -2 1 9 10 13 10 17 1 17 -9 0 -9 4
1 17 12 15 12 16 -1 8 -13 -8 -13 -7 -1 8 11 14 11 20 1 32 -11 13 -10 14 5 9
15 -6 16 -4 5 16 -7 12 -8 20 -2 16 11 -7 25 21 16 35 -3 5 -1 9 5 9 6 0 15 9
21 21 9 15 8 24 -2 37 -7 9 -8 13 -2 9 7 -4 15 0 18 9 3 8 2 12 -4 9 -6 -3 -7
1 -4 9 3 9 10 13 15 10 5 -3 6 2 3 10 -3 9 -1 16 5 16 6 0 11 5 11 11 0 5 -6
7 -12 3 -9 -6 -9 -3 1 9 7 9 10 24 7 33 -5 14 -4 15 9 4 13 -11 14 -10 9 4 -4
10 -1 16 7 16 10 0 10 3 2 11 -12 12 0 45 21 60 5 4 6 11 2 17 -3 5 5 20 18
33 17 16 21 27 15 35 -6 8 -4 14 6 18 8 3 15 14 15 24 0 25 25 48 35 31 6 -8
10 -7 16 2 6 9 9 10 9 2 0 -12 17 -12 38 0 7 5 12 3 12 -4 0 -8 4 -8 15 1 12
10 15 10 15 -1 0 -11 2 -11 10 1 6 10 10 11 10 3 0 -7 5 -13 11 -13 5 0 7 5 3
11 -5 8 -1 8 14 0 17 -9 21 -8 25 7 4 14 5 14 6 -3 1 -17 3 -18 11 -5 8 12 10
12 10 1 0 -11 3 -11 15 -1 10 8 15 9 15 2 0 -6 7 -9 15 -6 8 4 12 10 9 15 -3
5 2 6 10 3 9 -3 13 -11 9 -18 -4 -6 0 -5 9 2 9 7 25 12 35 10 12 -2 17 2 15
12 -2 8 0 11 5 7 4 -5 9 -13 9 -18 3 -22 6 -23 13 -5 6 15 18 20 52 21 24 1
50 -3 58 -9 11 -8 13 -8 8 0 -4 7 1 15 11 19 9 3 17 5 18 3 0 -2 7 2 15 8 8 6
22 10 31 9 10 -2 16 0 15 3 -1 4 6 18 16 32 9 13 17 20 17 14 0 -5 -5 -15 -12
-22 -8 -8 -8 -12 -1 -12 6 0 18 18 27 40 9 22 18 40 22 40 3 0 2 -5 -2 -12 -4
-7 -3 -8 5 -4 9 6 9 11 0 22 -8 10 -8 14 0 14 6 0 11 5 11 11 0 5 -6 7 -12 3
-9 -5 -9 -3 1 9 7 9 16 15 20 13 3 -2 5 12 4 32 -1 21 -2 37 -3 37 -1 0 -3 10
-4 22 -2 16 1 20 9 13 7 -6 11 -3 11 11 0 10 -5 19 -10 19 -5 0 -1 7 10 15 10
8 15 15 10 15 -5 0 -3 7 5 16 10 13 10 17 -2 25 -11 7 -10 9 5 9 15 0 16 3 6
15 -11 13 -10 14 5 9 13 -5 16 -4 11 4 -4 7 -3 12 3 12 6 0 7 8 4 17 -5 13 -2
15 11 10 9 -4 15 -3 11 2 -3 5 -1 13 5 16 8 5 8 11 0 20 -9 10 -6 16 10 25 12
6 19 17 17 23 -2 7 3 18 12 25 13 11 13 12 1 7 -12 -5 -12 -4 1 7 9 7 14 19
12 26 -3 6 1 12 7 12 7 0 10 7 6 15 -3 8 -2 14 2 14 19 -3 23 2 13 15 -9 11
-9 16 0 22 8 4 9 3 5 -4 -4 -7 -2 -12 3 -12 6 0 11 5 11 12 0 6 10 23 23 37
12 14 14 19 4 12 -15 -12 -17 -12 -11 3 3 9 11 16 16 16 6 0 8 7 5 14 -4 11
-1 13 10 9 11 -4 14 -2 9 5 -5 9 2 31 22 62 2 2 7 -2 11 -9 6 -9 9 -5 9 13 0
15 -5 23 -11 19 -6 -3 -7 -1 -3 6 4 6 11 9 15 7 4 -3 13 4 20 16 7 11 8 17 2
14 -7 -4 -8 -1 -5 8 3 9 9 15 12 14 20 -2 25 3 12 12 -11 7 -11 10 -2 10 7 0
10 4 7 10 -4 6 1 7 12 3 16 -6 17 -5 3 13 -8 10 -10 16 -6 12 5 -5 14 2 21 15
8 15 8 24 1 29 -7 5 -4 8 7 8 10 0 15 5 12 10 -3 6 -1 10 5 10 7 0 10 7 6 15
-3 8 0 15 7 16 7 0 3 4 -8 9 -16 7 -17 9 -3 9 9 1 20 6 24 13 4 7 3 8 -4 4
-16 -10 -15 7 1 23 9 11 9 12 0 7 -9 -5 -11 -2 -7 9 5 13 9 13 23 3 12 -9 11
-7 -2 9 -12 14 -15 23 -7 28 5 3 8 10 5 15 -3 5 0 12 6 15 5 4 8 14 5 22 -4 9
2 22 11 30 17 13 16 13 -7 7 l-25 -7 25 21 c21 18 23 23 10 31 -12 8 -11 13 5
32 11 12 15 19 9 16 -7 -4 -14 0 -17 8 -4 9 -1 12 7 9 8 -3 17 0 22 7 4 8 3
10 -4 5 -7 -4 -12 -3 -12 3 0 5 4 12 10 16 5 3 7 12 3 20 -3 9 -1 21 5 28 6 6
12 16 14 22 1 5 7 9 12 7 5 -2 4 4 -4 12 -7 9 -8 16 -2 16 5 0 13 7 16 16 3 8
2 13 -2 10 -4 -2 -8 4 -8 14 0 10 5 16 10 13 5 -4 7 1 3 10 -3 10 -2 17 3 17
8 0 15 25 24 89 1 14 8 27 14 29 7 2 12 8 12 13 0 6 -4 7 -10 4 -16 -10 -12 2
7 21 13 13 14 19 5 22 -6 2 -12 8 -12 13 0 6 5 7 10 4 6 -3 10 -1 10 5 0 6 5
8 13 4 8 -5 8 -2 -2 9 -11 14 -11 17 0 17 9 0 10 3 4 8 -16 11 -18 35 -2 29
10 -4 13 1 9 20 -4 20 -2 24 8 18 9 -6 11 -4 5 6 -11 17 -14 50 -4 44 4 -3 9
2 13 10 3 8 0 15 -7 15 -8 0 -6 4 3 10 8 5 10 10 4 10 -7 0 -9 11 -6 26 3 16
1 25 -5 21 -5 -3 -10 0 -10 8 0 11 5 12 21 3 17 -9 19 -8 9 3 -16 16 -17 55
-3 64 6 4 8 11 4 16 -14 23 -11 59 5 59 14 0 14 2 1 10 -13 9 -13 10 0 10 11
1 10 4 -5 17 -18 14 -18 15 -1 9 13 -4 17 -2 13 8 -3 7 0 19 6 25 9 9 8 14 -3
21 -13 9 -13 11 0 20 13 9 13 11 0 20 -12 8 -12 10 5 10 14 0 16 3 7 8 -7 5
-14 18 -17 31 -2 12 0 19 6 16 5 -4 6 -11 3 -17 -4 -7 -2 -8 4 -4 9 5 9 13 2
26 -15 28 -12 34 8 19 9 -7 6 -1 -8 14 -16 19 -19 26 -8 22 9 -4 19 -1 23 5 3
6 1 9 -7 8 -9 -2 -12 7 -11 30 1 22 -2 30 -10 26 -9 -5 -9 -4 0 6 9 9 9 19 2
33 -7 12 -7 17 -1 13 6 -4 8 2 5 14 -3 11 -10 20 -16 20 -6 0 -2 7 9 15 18 15
18 15 0 8 -13 -4 -17 -3 -12 5 4 7 2 12 -5 12 -6 0 -9 8 -6 20 3 11 0 23 -5
27 -7 4 -8 1 -3 -7 6 -9 4 -11 -4 -5 -9 5 -10 10 -2 18 14 14 14 30 1 22 -10
-6 -14 15 -11 44 2 8 -2 10 -10 5 -8 -5 -9 -3 -3 7 13 22 13 37 -1 43 -8 3
-11 13 -8 27 5 17 3 20 -8 14 -8 -5 -6 1 5 13 17 20 18 22 2 28 -14 5 -15 9
-4 15 7 5 8 9 2 9 -6 0 -11 13 -11 30 0 16 4 27 9 24 4 -3 5 2 2 10 -3 9 -11
13 -18 9 -6 -3 -3 3 7 14 12 13 14 23 8 27 -6 4 -9 21 -7 39 2 17 0 41 -5 54
-7 18 -5 21 9 16 15 -6 16 -5 2 13 -8 10 -19 22 -25 26 -6 5 -4 8 5 9 10 0 8
3 -5 9 -12 5 -14 9 -6 9 11 1 10 5 -3 20 -13 14 -14 21 -5 27 8 5 10 3 4 -6
-5 -8 -4 -11 3 -6 23 14 -1 41 -33 37 -5 -1 -1 6 9 14 20 15 20 15 0 15 -16 0
-17 2 -4 10 8 5 10 10 3 10 -6 0 -10 13 -9 31 1 16 -2 33 -7 36 -6 3 -7 1 -3
-5 4 -7 2 -12 -5 -12 -6 0 -9 8 -6 20 3 11 1 20 -5 20 -5 0 -6 5 -3 10 4 6 1
18 -7 27 -11 14 -11 16 2 8 12 -7 13 -6 3 7 -7 8 -9 19 -5 24 4 4 -1 2 -10 -5
-20 -15 -23 -9 -8 20 8 14 7 19 -1 19 -6 0 -9 7 -5 15 3 9 0 15 -9 15 -8 0
-15 5 -15 10 0 6 5 10 12 10 6 0 3 7 -8 16 -10 8 -12 12 -4 8 13 -7 13 -5 1 9
-7 9 -11 17 -7 17 4 0 0 10 -9 23 -8 13 -12 27 -8 32 5 4 4 6 -2 3 -5 -3 -17
9 -26 28 -9 19 -11 31 -5 28 6 -3 3 1 -6 9 -10 8 -18 21 -18 29 0 9 -9 27 -21
42 -18 23 -19 29 -7 44 11 15 11 16 -3 5 -20 -16 -28 -8 -24 25 2 15 2 21 -1
15 -3 -7 -10 -13 -15 -13 -6 0 -8 4 -4 9 3 5 -6 21 -20 35 -16 16 -20 26 -12
29 7 3 4 6 -6 6 -9 1 -16 7 -15 14 2 6 -1 11 -7 10 -5 0 -19 11 -29 25 l-20
27 24 -20 24 -20 -24 32 c-14 18 -31 32 -37 32 -7 1 -13 6 -13 11 0 6 -6 9
-12 8 -8 -2 -13 6 -12 19 1 14 -3 20 -12 16 -8 -3 -14 1 -14 10 0 9 -5 19 -12
23 -7 5 -9 2 -4 -7 4 -8 -2 -3 -13 10 -12 12 -18 28 -14 34 4 6 0 8 -10 4 -10
-4 -17 -2 -17 4 0 6 -7 8 -16 5 -8 -3 -12 -2 -9 4 3 5 -4 15 -17 21 -13 5 -28
20 -33 31 -6 12 -19 23 -30 24 -11 2 -21 8 -23 14 -2 5 -8 8 -13 4 -5 -3 -9 2
-9 10 0 9 -4 17 -10 17 -5 1 -14 3 -20 4 -5 1 -14 3 -20 4 -5 0 -7 8 -3 17 5
14 3 15 -17 4 -15 -8 -20 -8 -16 -1 4 6 0 11 -9 11 -9 0 -14 4 -10 9 3 5 1 12
-5 16 -5 3 -10 0 -10 -7 -1 -8 -6 -6 -15 6 -11 15 -15 16 -16 5 0 -8 -5 -3
-10 10 -8 20 -11 22 -26 10 -12 -10 -14 -10 -9 -1 4 7 1 12 -8 12 -9 0 -16 5
-16 12 0 6 -3 8 -7 5 -3 -4 -15 1 -25 10 -18 16 -19 16 -12 -3 4 -15 1 -14
-15 6 -18 22 -22 24 -42 12 -11 -8 -19 -10 -16 -5 3 5 2 15 -4 23 -6 10 -9 11
-9 3 0 -7 -5 -13 -11 -13 -5 0 -8 4 -5 9 8 13 -25 24 -37 12 -10 -10 -40 -3
-32 8 2 4 -9 5 -26 3 -19 -3 -29 0 -29 8 0 10 -3 10 -15 0 -12 -10 -15 -9 -15
6 0 13 -3 15 -8 7 -4 -7 -13 -9 -21 -4 -7 5 -22 6 -32 4 -12 -3 -19 0 -19 8 0
11 -2 11 -10 -1 -5 -8 -10 -10 -10 -4 0 7 -7 15 -16 18 -14 5 -15 4 -4 -9 11
-13 10 -14 -4 -9 -9 3 -16 10 -16 15 0 6 -10 5 -21 -2 -13 -7 -19 -7 -15 -1 3
6 2 13 -4 17 -5 3 -10 2 -10 -3 0 -5 -7 -9 -15 -9 -8 0 -15 4 -15 9 0 4 -5 8
-11 8 -5 0 -8 -4 -5 -8 3 -5 -1 -9 -9 -9 -8 0 -11 5 -8 10 4 6 0 8 -10 4 -10
-4 -21 1 -27 11 -10 15 -11 14 -6 -6 3 -19 2 -21 -9 -12 -8 7 -19 9 -25 5 -6
-4 -10 -3 -9 2 3 20 -2 27 -11 13 -9 -13 -10 -13 -10 0 0 13 -1 13 -10 0 -8
-12 -10 -12 -10 -1 0 11 -3 11 -17 0 -9 -8 -14 -9 -10 -3 4 7 0 15 -9 18 -8 3
-13 2 -10 -3 3 -5 -1 -12 -10 -15 -11 -4 -15 -2 -11 7 3 8 -3 13 -14 13 -11 0
-19 -3 -19 -7 0 -4 -15 -3 -32 1 -19 4 -32 12 -30 19 1 7 -2 10 -8 6 -6 -3 -7
-12 -4 -18 4 -7 4 -9 -1 -5 -4 4 -15 2 -23 -5 -13 -10 -14 -9 -4 9 l11 21
-299 0 c-199 0 -297 -4 -293 -10z m467 -6 c4 -5 -3 -7 -14 -4 -23 6 -26 13 -6
13 8 0 17 -4 20 -9z m46 3 c0 -8 -19 -13 -24 -6 -3 5 1 9 9 9 8 0 15 -2 15 -3z
m54 -6 c-3 -4 -9 -8 -15 -8 -5 0 -9 4 -9 8 0 5 7 9 15 9 8 0 12 -4 9 -9z
m-2254 -3218 c0 -5 -5 -10 -11 -10 -5 0 -7 5 -4 10 3 6 8 10 11 10 2 0 4 -4 4
-10z m300 -1630 c0 -5 -5 -10 -11 -10 -5 0 -7 5 -4 10 3 6 8 10 11 10 2 0 4
-4 4 -10z m2364 -244 c-3 -9 -10 -16 -15 -16 -5 0 -4 9 3 20 14 22 21 20 12
-4z m-3969 -646 c-3 -5 -12 -10 -18 -10 -7 0 -6 4 3 10 19 12 23 12 15 0z
m-1350 -630 c3 -5 -1 -10 -10 -10 -9 0 -13 5 -10 10 3 6 8 10 10 10 2 0 7 -4
10 -10z m-150 -620 c-3 -4 0 -10 7 -12 8 -3 7 -6 -3 -10 -11 -4 -15 1 -15 17
0 13 4 21 8 19 5 -3 6 -9 3 -14z m205 -1270 c0 -5 -2 -10 -4 -10 -3 0 -8 5
-11 10 -3 6 -1 10 4 10 6 0 11 -4 11 -10z m9125 -709 c3 -5 2 -12 -3 -15 -5
-3 -9 1 -9 9 0 17 3 19 12 6z"/>
<path d="M8735 7490 c3 -5 8 -10 11 -10 2 0 4 5 4 10 0 6 -5 10 -11 10 -5 0
-7 -4 -4 -10z"/>
<path d="M2238 6553 c7 -3 16 -2 19 1 4 3 -2 6 -13 5 -11 0 -14 -3 -6 -6z"/>
<path d="M2233 6505 c0 -8 4 -12 9 -9 5 3 6 10 3 15 -9 13 -12 11 -12 -6z"/>
<path d="M11866 3942 c-3 -5 1 -9 9 -9 8 0 12 4 9 9 -3 4 -7 8 -9 8 -2 0 -6
-4 -9 -8z"/>
<path d="M2875 2880 c-3 -5 -1 -10 4 -10 6 0 11 5 11 10 0 6 -2 10 -4 10 -3 0
-8 -4 -11 -10z"/>
</g>
</svg>
